# xmcd CD database file
#
# Track frame offsets:
#	150
#	19102
#	34795
#	54466
#	78870
#	91339
#	112655
#	130901
#	153116
#	171544
#	189946
#	207318
#	223157
#	247111
#	264731
#
# Disc length: 3811 seconds
#
# Revision: 0
# Processed by: cddbd v1.5.2PL0 Copyright (c) Steve Scherf et al.
# Submitted via: CDex 1.51
#
DISCID=c90ee10f
DTITLE=Silke Hauck - Light and Love
DYEAR=2011
DGENRE=Jazz
TTITLE0=Fallin' In Love With You
TTITLE1=Stay For Good
TTITLE2=Gonna Get Over You
TTITLE3=Frozen Tears
TTITLE4=Year Of The Dragon
TTITLE5=Good Turns To Bad
TTITLE6=When November Comes Again
TTITLE7=Don't Ask For More
TTITLE8=You Make Me Smile
TTITLE9=Cry For Tenderness
TTITLE10=Day By Day
TTITLE11=Silent Goodbye
TTITLE12=Put The Blame On Me
TTITLE13=Where My Heart Feels Like Home
TTITLE14=Lautes Herz
EXTD=YEAR: 2011
EXTT0=
EXTT1=
EXTT2=
EXTT3=
EXTT4=
EXTT5=
EXTT6=
EXTT7=
EXTT8=
EXTT9=
EXTT10=
EXTT11=
EXTT12=
EXTT13=
EXTT14=
PLAYORDER=
